<?xml version="1.0" encoding="UTF-8"?>
<svg version="1.1" viewBox="0 0 1294 1198" width="1280" height="1280" xmlns="http://www.w3.org/2000/svg">
<path transform="translate(638,54)" d="m0 0h40l21 2 24 5 49 14 21 7 21 10 11 8 10 14 8 12 11 12 9 8 19 14 12 11 6 7 6 12 7 27 8 16 3 14 3 24v33l1 13-2 2 10 31 5 26 3 22 3 30 11 65 6 31 11 35 8 33 9 27 13 31 8 14 10 17 5 11 5 31 3 25 3 35 6 54 4 24 10 37 5 21v19l-5 21-7 20-7 16-8 10-16 15-7 8-7 7-14 10-14 8-19 9-23 7-26 6-15 4-16 1-9-3-14-9-5-6-4-9v-9l1 2h2v-8l4-28 1-33 1-15v-22l-8 10-12 12-9 11-11 11-8 7-12 11-14 10-21 12-18 8-25 7-23 6-6 1-20 1h-24l-18-2-21-4-18-6-15-8-9-8-7-11-5-12-5-17-3-25-3-5-8-6-11-7-8-10-9-16-14-19-13-15-11-13-9-11-7-9-4-9-4-22-16-31-8-16-6-16-6-26v-3h-7l-7-1-10 13-12 13-9 10-15 14-9 10-11 16-12 20-12 25-11 24-9 17-7 12-8 23-4 6-12-2-18-4-22-8-14-8-12-11-15-14-11-15-9-14-8-16-11-23-1-3v-12l3-14 10-21 10-13 14-19 7-11 4-15 5-13 2-11 4-70 4-27 5-21 3-23v-10l-6-10-5-13-6-20-7-24-2-13 1-13 6-25v-14l3-15 5-22v-16l2-19 5-10 5-4h10l9 6 6 7 3 8 2 20v13l1 1 1-6 6-11 9-10 17-16h2l2-4 7-9 16-8 10-6 10-7 16-9 10-6 14-8 10-4 7-1v-8l3-21 9-27 8-18 10-17 7-9 9-10 13-12 15-11 16-11 10-7 14-10 11-5 20-6 16-5 15-6 54-14 25-4zm-3 6-19 2-23 5-42 11-23 9-25 7-19 10-12 8-14 10-9 6-16 12-11 10-11 14-12 18-8 14-6 14-6 25-4 19-1 4 9 3 5 8 1 3v19h15l18 3 19 2 8 4 5 10v9l-3 4v2h-2l-5 5-8 6-10 4-5 1h-14l-11-3h-3l-5 5-9 6-13 4-1 1v33l-1 8v18l8-6 15-14 10-10 9-5 7-1 14 3 15 6 17 9 13 10 12 12 7 9 6 13 3 10 5 8 3 10 4 1 9-1 6 3 3 6 2 16 1 27 3 14 10 18 1 4v10l-4 11-8 10-15 16-15 15-8 7-10 9-14 12-17 13-8 7-9 10-5 6-12 9-7 7-4 6-10 9-3 3h10l3 1 4 9 7 26 7 19 10 20 9 15 10 30 7 13 11 13 5 5 10 13 4 5 10 14 10 15 8 13 6 7 14 8 5 5 5 9 2 8 5 24 7 20 7 9 8 6 15 7 16 5 20 4 24 2 26-1 15-2 48-13 20-9 15-9 13-9 13-12 15-14 11-12 7-8 7-6 9-11 3-4 2-25 2-49 3-50v-32l-2-23-3-10-4-8-9-6-20-12-9-7-13-12-8-7-12-9-18-13-18-11-18-10-22-12-20-12-24-13-16-9-24-14-11-7-9-8-12-17-7-13-4-14-12-23-2-7v-13l4-9 1-3 12-6 8-2h11l1-1 2-15 7-23 5-12 8-16 6-8 8-6 16-8 15-8 16-10 17-8 4-1h17l15 4 24 8h6l-6-8-9-14-6-10-8-13-9-9-6-15-4-6-8-6-16-9-12-8-10-9-8-10-9-6-26-14-13-10-8-8-7-13-2-12 2-9 3-5 7-3h17l14 4 14 7h9l26 9 18 8 17 7 8 4 16 5 10 6 19 6h2l-2-16 2-10 4-6 5-2h9l6 4 11 11 8 7 8 8 9 11 11 11 8 7 16 15 14 15 8 8 11 15 6 11 1-4-3-35-4-29-3-10-8-17-7-23-5-10-9-11-14-11-16-12-10-9-9-11-8-12-9-12-6-5-31-13-20-6-36-10-21-5-14-2-14-1zm-16 107-5 3-2 6v10l4 11 6 8 7 7 12 9 16 9 14 8 9 1-5 1 6 8 11 10 17 11 16 9 5 4 6 10 14-7 7-5-2 4-10 6-8 3 1 8 7 8 7 9 8 14 10 16 10 11 3 6h-5l-5 2-13-1-30-9-9-2h-8l-12 4-15 8-21 13-20 10-9 8-8 14-7 21-1 9 6 5 4 9 1 7v8l-3 12-2 5h6l9-5 6-8 5-10 6-19 3-7-1-9 3 7 11-6 23-13 18-1 8-11 10-16-5 12-8 14v2l24 13 21 8h7l1 4-1 3 3 7 4 9v19l-2 9-10 16-13 15-6 7-16 8-5 2-18 1-16-2-38-19-2-5-9-11-7-8h-15l-8-3-6-7-1-2-1-10h-17l-7 3-6 7-2 5 1 11 16 32 5 15 12 18 10 10 16 9 20 12 17 10 17 9 23 13 25 14 21 12 16 10 20 14 10 8 12 11 11 9 10 7 11 8 11 10 9 14 4 15 2 14 1 20 6-2 4-2v-4l4 4 9 21v2l-9-17-7 1-4 4h-4v32l2-4 2-9 1 16 4 1v-3h3l-3 13-2-3-2 8-1-8-4-1-1-2-1 12-1 26v24l7-1 8-4 13-2-4-6h-2l1-3 10 9 4 5 1 2-5-1-10 5-8 1-8-1-5 6-3 2-1 7-2 50 4-1h8l13 4 10-3h4l1 5 2-4 3-1 1 4v-2l2 1v11l-1 7-1-9-2-1-4 19-2 7-1-26-10-5-10 3-16 2v-2l13-2 6-2v-2l-6-2h-9l-5 1-1 8-1 31-4 25-2 12v10l11 8 9 5h12l21-5 32-8 15-5 25-12 11-7 10-8 6-7-9-12-7-10-10-4-6-1-2 11-3-9h-1l-1 7-1 1-1-6h-1l-1 6-2-2-1 1-3 22v-23l-12-12-18-3-9-2-1 4-2-3-2-29v-10l3 17 1 9 2 1h8l12 6 5 5 5 2 9 1v-3l8 3h3l2-35 1-9 1 6 1 29 10 6 9 10 15 5 2 4 5 7 7-6 7-7 6-10 9-24 6-22 1-7v-11l-3-19-11-44-8 1-14 3-6 5 2-4h-10l3 10 2 15-7-16-2-10h11l8-3 9-6 10-4-2-21-4-34-2-12-5 5v30l-4-20v-15l9-4-2-28-10 3-11 3-14 15-3 3-1 15-3-11-1-8-2 4-2 7-2-10-2 3-2 6-1-10 5-1 1-2h5l1-3 11-7 9-4 9-10 7-4 5-1-1-16-2-9-5 2-11 4-5 2-13 14v2l-5-3v3l-4-2-3 3-1-9 2 2v-7l1-2-2-10 6 11 5-1 16-7 6-7 6-4 4-1v-7l-5-12-14-24-6-12-12-29-8-23-5-19-6-25-10-30-4-20-5-31-6-31-3-22-3-34-5-33-4-15-8-21-11-20-11-13-10-10-1-2h-2l-2-4-7-7-7-8-11-12-11-9-8-10-6 1h-10l-11-4-9-8-5-9-2-5h-2v17l5 13 6 11 9 10 7 8 11 12 10-1-8 3 1 5 14 20 9 14 12 21 10 4h-8l-1 3v8l2 10v13l-1 3v14l-2 15-4 1-1-5v-27l1-4v-9l-1-5-1-19-9-15-8-14-11-15-8-14-5-8-15-16-11-16-4-8-13-4-13-3-9-5-8-4-13-4-24-11-6 4-3 1h-13l-11-4-10-7-5-7-5 3-1 2 1 9 4 8 11 13 12 12 12 6 16 3 13 2 7 2 3-5 3-7 1 3-5 8v3l10 7 15 8 34 20 7 5 11 1-5 2 8 20 7 19 8 16 2 7-7-3-10-18-12-35-5-4-8-6-13-8-27-15-13-7-11-8-17-3-17-4-12-6-14-14-8-11-4-8-3-12-21-10-5-5-3-4zm9 0 2 4 6 5 14 7 4-1 6-6-10-4-17-5zm43 10-4 1 2 4 8 7 14 7h11l5-2v-2l-21-10-8-4zm129 13-5 2 5 10 11 11 9 5 3 1h8l2-2-22-22-8-5zm-437 73-9 4-13 8 4 1 15-6 5-5 1-2zm9 1-8 9-14 7-5 1h-13l-21 13-10 7-19 10-12 14-17 14-7 8-5 10-2 8-2 38-2 18v20l11 23 14 21v2l-5-3-8-10-12-23-6-15h-2l-3 3-5 2-14 1 9-3 9-2 5-3-2-14v-32l2-39-1-17-3-10-4-6-6-6-5-1-7 8-3 10-1 32-8 36v10l-4 24-1 4v19l7 27 8 26 5 13 1 6v23l-4 24-4 21-2 15-4 74-3 12-5 15-3 11-21 28-12 17-8 17-3 12 1 9 12 25 12 22 14 20 27 27 12 7 21 7 25 6h2l5-18 5-11 7-12 10-19 11-23 9-20 9-16 10-15 11-14 10-10 8-7 10-10 7-8 11-13 7-8 9-8 7-6 6-9 18-14 27-27 11-9 13-12 8-7 15-14 22-22 10-13 3-6 1-7-3-9-6-11-5-1h-9l-4-2-7-14v-9l5-16 6-16 4-9-2-1h-7l-9 4-7 6-10 15-6 14-4 14v17l6 12 7 9 10 7 6 2v4l-12-4-8-6-8-11-5-10-7 6-8 8-13 10-11 3-9-1-11-8-6-5-10-13-4-10-1-4v-14l5-20 6-15-8-3-10-4-12-9-13-13-9-13-4-7-4-1-4-5v-9l6-31 2-17v-7l-11-1-17-7h3l9 2 8 3h7l11-7 12-4 14-7 6-5-6-7-5-3-1-3 3 1 11 11 12 2h14l12-3 10-6 7-8v-8l-3-8-4-1-5 6v2l-4 2-7 5-3 1h-12l-17-3 1-6 8-9v-3h-16l-6 3-11 10-14 9-20 10-8 9-6 7-8 7-10 10-3 7-1 15v20l3 25 4 14-4-4-5-14-3-34-1-19 2-10 6-8 9-10 13-10 4-7-7-4h-2l-1-4 10 5h6l16-8 16-10 11-8 7-9 2-7v-10l-2-4-9-4zm37 34-7 12v2l11 2h8l10-5 7-6v-2l-18-1zm-51 59-4 2-4 42-4 17v7l2 4h3l8-11-1-8v-19l1-10 1-24zm-126 17-2 21v16h1l1-5 1-15v-17zm175 9-7 4-12 12-8 7-14 12-8 7-4 5 8 11 12 13 11 11 11 7 10 4h3l7-10 9-11v-3l-16-16-7-11v-3l6 10 11 12 11 8 9 4 8 11 4 2 6 12 5 12 7 5 11 4 3-1 5-10v-3l-5-5-5-8-2-11 2-9 6-7 7-3-1-6-6-11-9-11-8-7-10-8-15-9-20-8-8-2zm298 36-6 2-8 7-24 13-5 8-6 18-10 16-5 6 1 4 6 7 5 9 7 6 2 1 13 2 18 10 9 3h25l15-6 8-7 7-7 8-10 9-14 1-14-2-10-5-12v-7l-7-2-18-5-16-8-9-6-3-4zm-87 28-4 9v24l4 6 4 1 3-6 2-10v-10l-4-9zm-126 6-5 4-3 6-1 7 4 11 5 4 7-9 5-4-3-9-3-7-2-3zm-62 6-8 9-7 10-6 12-5 15-2 9v13l3 10 10 13 7 7 8 6h12l8-4 11-9 10-9 3-2 2-18 3-10v-4l-12-3-9-6-6-14-5-10-9-10-2-4zm95 15-4 8-8 24-1 4v12l5 9 4 2 9-1-1-11-1-39-1-7zm495 233-9 7 4 1 9-3-1-5zm-22 16m-3 1-8 3 2 6 1 2h2l6-9v-2zm-14 1 1 2zm-1 7m44 10-9 6-3 3v2l10-2 6-3v-6zm-25 18-8 4 1 8 5-5 5-6zm27 23m-1 1m-151 10 1 3zm163 59-11 5 4 1 9-3 1-3zm-140 45-11 1-3 1v2h8l9-3zm-27 5-1 4h2l1-4zm31 67-5 4 1 3 6 2-1-9zm23 4-2 1v5l16 3h5l-4-4-11-5zm55 8v5l7 3 3-1-5-5zm-25 6 2 4 4 6h1l1-10zm47 10 2 6 8 13 3-1 3-4-2-4-6-7-5-3z" fill="#D82526"/>
<path transform="translate(373,256)" d="m0 0 1 2 7 1 5 4 4 9v18h14l18 3 19 2 8 4 5 8 1 3v9l-4 6h-2l-1 3-10 8-12 5-5 1h-14l-14-4-1 3-11 8-8 3-7 2v33l-1 8v17l11-10 8-7 13-13 9-5 7-1 14 3 15 6 17 9 13 10 12 12 6 7 8 16 3 10 5 8 3 10 12-1 6 3 3 4 2 9 1 10 1 27 3 14 10 18 1 4v10l-4 11-8 10-15 16-16 16-8 7-10 9-14 12-17 13-8 7-13 15-13 10-14 16-9 7v2h-3v2l-5 5-8 10-11 12-9 10-15 14-9 10-11 16-12 20-12 25-11 24-9 17-7 12-8 23-4 6-12-2-18-4-22-8-14-8-12-11-15-14-11-15-9-14-8-16-11-23-1-3v-12l3-14 10-21 10-13 14-19 7-11 4-15 5-13 2-11 4-70 4-27 5-21 3-23v-10l-6-10-5-13-6-20-7-24-2-13 1-13 6-25v-14l3-15 5-22v-16l2-19 5-10 5-4h10l9 6 6 7 3 8 2 20v13l1 1 1-6 6-11 9-10 17-16h2l2-4 7-9 16-8 10-6 10-7 16-9 10-6 14-8 10-4zm-10 7-9 4-13 8 4 1 15-6 5-5 1-2zm9 1-8 9-14 7-5 1h-13l-21 13-10 7-19 10-12 14-17 14-7 8-5 10-2 8-2 38-2 18v20l11 23 14 21v2l-5-3-8-10-12-23-6-15h-2l-3 3-5 2-14 1 9-3 9-2 5-3-2-14v-32l2-39-1-17-3-10-4-6-6-6-5-1-7 8-3 10-1 32-8 36v10l-4 24-1 4v19l7 27 8 26 5 13 1 6v23l-4 24-4 21-2 15-4 74-3 12-5 15-3 11-21 28-12 17-8 17-3 12 1 9 12 25 12 22 14 20 27 27 12 7 21 7 25 6h2l5-18 5-11 7-12 10-19 11-23 9-20 9-16 10-15 11-14 10-10 8-7 10-10 7-8 11-13 7-8 9-8 7-6 6-9 18-14 27-27 11-9 13-12 8-7 15-14 22-22 10-13 3-6 1-7-3-9-6-11-5-1h-9l-4-2-7-14v-9l5-16 6-16 4-9-2-1h-7l-9 4-7 6-10 15-6 14-4 14v17l6 12 7 9 10 7 6 2v4l-12-4-8-6-8-11-5-10-7 6-8 8-13 10-11 3-9-1-11-8-6-5-10-13-4-10-1-4v-14l5-20 6-15-8-3-10-4-12-9-13-13-9-13-4-7-4-1-4-5v-9l6-31 2-17v-7l-11-1-17-7h3l9 2 8 3h7l11-7 12-4 14-7 6-5-6-7-5-3-1-3 3 1 11 11 12 2h14l12-3 10-6 7-8v-8l-3-8-4-1-5 6v2l-4 2-7 5-3 1h-12l-17-3 1-6 8-9v-3h-16l-6 3-11 10-14 9-20 10-8 9-6 7-8 7-10 10-3 7-1 15v20l3 25 4 14-4-4-5-14-3-34-1-19 2-10 6-8 9-10 13-10 4-7-7-4h-2l-1-4 10 5h6l16-8 16-10 11-8 7-9 2-7v-10l-2-4-9-4zm37 34-7 12v2l11 2h8l10-5 7-6v-2l-18-1zm-51 59-4 2-4 42-4 17v7l2 4h3l8-11-1-8v-19l1-10 1-24zm-126 17-2 21v16h1l1-5 1-15v-17zm175 9-7 4-12 12-8 7-14 12-8 7-4 5 8 11 12 13 11 11 11 7 10 4h3l7-10 9-11v-3l-16-16-7-11v-3l6 10 11 12 11 8 9 4 8 11 4 2 6 12 5 12 7 5 11 4 3-1 5-10v-3l-5-5-5-8-2-11 2-9 6-7 7-3-1-6-6-11-9-11-8-7-10-8-15-9-20-8-8-2zm85 70-5 4-3 6-1 7 4 11 5 4 7-9 5-4-3-9-3-7-2-3zm-62 6-8 9-7 10-6 12-5 15-2 9v13l3 10 10 13 7 7 8 6h12l8-4 11-9 10-9 3-2 2-18 3-10v-4l-12-3-9-6-6-14-5-10-9-10-2-4zm95 15-4 8-8 24-1 4v12l5 9 4 2 9-1-1-11-1-39-1-7z" fill="#D92627"/>
<path transform="translate(638,54)" d="m0 0h40l21 2 24 5 49 14 21 7 21 10 11 8 10 14 8 12 11 12 9 8 19 14 12 11 6 7 6 12 7 27 8 16 3 14 3 24v33l1 13-4-1-3-12-3-35-4-29-3-10-8-17-7-23-5-10-8-10-14-11-16-12-10-9-10-12-8-12-9-12-5-4-31-13-20-6-36-10-21-5-14-2-14-1h-40l-19 2-23 5-42 11-23 9-25 7-19 10-12 8-14 10-9 6-16 12-10 9-11 14-12 18-8 14-6 14-6 25-4 19-1 2h-3v-8l3-21 9-27 8-18 10-17 7-9 9-10 13-12 15-11 16-11 10-7 14-10 11-5 20-6 16-5 15-6 54-14 25-4z" fill="#551515"/>
<path transform="translate(400,714)" d="m0 0h8l4 2 4 9 7 26 7 19 10 20 9 15 10 30 7 13 11 13 5 5 10 13 4 5 10 14 10 15 8 13 5 6 14 8h2l7 11 3 6 5 26 8 24 7 9 9 6 13 6 16 5 20 4 24 2 26-1 15-2 48-13 20-9 15-9 13-9 13-12 15-14 10-11 7-8 7-6 9-11 3-3h3l-2 5-7 11-15 15-9 11-11 11-8 7-12 11-14 10-21 12-18 8-25 7-23 6-6 1-20 1h-24l-18-2-21-4-18-6-15-8-9-8-7-11-5-12-5-17-3-25-3-5-8-6-11-7-8-10-9-16-14-19-13-15-11-13-9-11-7-9-4-9-4-22-16-31-8-16-6-16-6-26v-3h-7l-5-2v-2z" fill="#531415"/>
<path transform="translate(976,933)" d="m0 0h1l1 15 1 29 9 5 7 7 2 3 12 4 5 5 4 5v4l-4-2-5-6-8-4 12 21-1 3-8-9-10-15-10-4-6-2v7l-2 6h-1l-2-10-2 14h-1l-1-7h-1l-1 6h-1l-1-7-4 29h-1v-30l-11-11-18-3-9-3v10h-1l-2-8-1-1-2-29v-15h1l4 22 1 9h9l12 6 5 5 5 2 9 2v-3l6 1 4 1 2-34zm-52 41-2 1v5l16 3h5l-4-4-11-5zm55 8v5l7 3 3-1-5-5zm-25 6 2 4 4 6h1l1-10z" fill="#631617"/>
<path transform="translate(978,861)" d="m0 0 4 4 7 11 1-2 4 1 1 5v8l-4-4-4 2-3-2-14 14-4 5-10 7-10 19-9 13-7 7v-3l8-13 10-18v-2l-10 3-4-1 16-8 5-5 7-10 4-5 10-7 7-2-5-14zm5 20m-3 1m-2 1-10 9-6 7h3l15-15z" fill="#681717"/>
<path transform="translate(976,933)" d="m0 0h1l1 15 1 29 9 5 7 7 2 3 12 4 5 5 4 5v4l-4-2-5-6-8-4 12 21-1 3-8-9-10-15-10-4-6-2v7l-2 6h-1l-1-5v-49zm3 49v5l7 3 3-1-5-5z" fill="#571515"/>
<path transform="translate(1008,774)" d="m0 0 2 1v24l-1 10-2 2-1-4-11 11-12 8-16 22-1-2 8-15-16 8 5 9v2l2 1 4 11-1 2-13-23-1-4 7-3 14-9 6-4 8-11 10-9 4-2h4v-24zm-3 28m-2 1-10 9-3 4 4-2 8-7 3-4z" fill="#611616"/>
<path transform="translate(870,968)" d="m0 0h8l13 4 10-3h4l2 2 4-1 1 2 3 1v11l-2 13h-1l-1-15-4 18-2 7-1 7h-1l-1-33-9-4-10 3-4 1h-12v-2l16-4h3v-2l-6-1h-9l-4 1 1-4zm31 2-5 4 1 3 6 2-1-9z" fill="#6A1718"/>
<path transform="translate(970,758)" d="m0 0h1l2 11v9l-2 4-5 2-9 8-8 5-9 14-5 6 2 14-3-4-7-16 1-5 16-11h2l2-4 8-10 8-6h3l1-10zm-7 22m-1 1m-1 1m-1 1m-1 1m-1 1m-1 1m-16 14-10 6-1 2 3 8 3-4 6-10z" fill="#651717"/>
<path transform="translate(1021,740)" d="m0 0h7v2l-8 3-7 6-1 2 13-4 3 1-3 3-17 5-12 13-4 4-1 19-2-4-4-15-3 9h-1l-2-9-2 9-2-3-1-10 4-2 2 1 1-3h4l5-5 8-5 9-4 9-10zm-22 20-8 4 1 8 5-5 5-6z" fill="#6B1718"/>
<path transform="translate(907,803)" d="m0 0 4 4 11 17-1 4-4-1-6 4-8 3-4 5-6 3h-2l-1 14-1 7-2-3-1-8v-22l1-1h15l2-4 8-8-5-11zm6 19-3 4 6-2v-2zm-4 4m-18 7v5l5-2 1-3z" fill="#5D1616"/>
<path transform="translate(1018,704)" d="m0 0 5 1-5 4-6 5 12-1-4 4-11 4-5 2-12 13-1 2-4-2-1 2h-4l-3 1-2-5v-5l2 1v-6l1-1-2-7 1-4 6 10v2l19-8h2l2-4 8-7zm-20 19m-3 1-8 3 2 6 1 2h2l6-9v-2zm-14 1 1 2z" fill="#651717"/>
<path transform="translate(973,733)" d="m0 0 4 5 8 13v4l-4-2-5-9-8 5-17 5-9 8-6 2-5-4-9-14-1-4 7 6 5 6v2l13-5 11-9 12-5 4 1-14 8-2 2 10-3 6-4h2l-2-5zm-32 22m-5 1v3l5-2v-1z" fill="#6A1718"/>
<path transform="translate(364,352)" d="m0 0h1l1 12v23l-2 14-1 14-2 3h-2l-2-8v-19l1-10 1-22 2-4z" fill="#4D1414"/>
<path transform="translate(892,884)" d="m0 0 6 4 9 9 1 4h-5l-10 5-8 1-8-1-5 6h-3l3-9-3-1v-1l8-2 8-4 12-2-5-5zm5 14-11 1-3 1v2h8l9-3z" fill="#5F1616"/>
<path transform="translate(892,764)" d="m0 0 3 4 1 2h9l6-3h7l3 1v-3l4 2 10 15 5 8-1 2-11-14-3-5h-2l-5 5h-7l-6-1-4 6-1 3-3-1-5-16zm29 4m-25 3 1 5 2 3 3-6zm16 0-3 3 9-1v-2z" fill="#661717"/>
<path transform="translate(933,834)" d="m0 0h3l8 14 4 10-1 2-2-1-7 8-10 9h-2l-2 6-4 8-1-4 2-5-5 3-2-1 9-8 6-14 9-10h2l-7-14zm8 19-7 6-4 7 1 3 13-13-1-3z" fill="#681717"/>
<path transform="translate(973,968)" d="m0 0h1v27h-1l-2 14h-1l-1-7h-1l-1 6h-1l-1-7-4 29h-1v-20l2-27 6 1 4 1z" fill="#771919"/>
<path transform="translate(1033,851)" d="m0 0h7l-3 3-9 4 9-2h5l-1 2-8 3-14 3-6 5v-3l1-1-9-1 4 10 2 13v5l-2-3-7-16-2-8 1-2 15-2 7-4 8-5z" fill="#6C1818"/>
<path transform="translate(228,729)" d="m0 0 10 2 9 4 14 7 12 4 20 3 22 8 6 2v1h-8l-20-7-26-5-13-5-10-6-16-7z" fill="#D92627"/>
<path transform="translate(383,597)" d="m0 0 3 3 8 15 11 28 5 17 1 6v12h-3l-2-16-6-20-11-30-6-13z" fill="#D92627"/>
<path transform="translate(989,763)" d="m0 0 2 2v29l-2-4-4-15-3 9h-1l-2-9-2 9-2-3-1-10 4-2 2 1 1-3h4z" fill="#641717"/>
<path transform="translate(923,654)" d="m0 0v3l-9 9-17 13-21 14-14 8-2-1 16-11 20-14 13-10 12-10z" fill="#D92627"/>
<path transform="translate(870,968)" d="m0 0h8l13 4 6-2 4 1-4 3v2l6 3-1 2-9-4-10 3-4 1h-12v-2l16-4h3v-2l-6-1h-9l-4 1 1-4z" fill="#671717"/>
<path transform="translate(877,815)" d="m0 0h1v19l4 1v-3h3l-1 9-2 7-2-2-2 7h-1l-1-11-3-1 1-6-4-2v-2h4l1-8z" fill="#6A1718"/>
<path transform="translate(1026,780)" d="m0 0h5l-2 6-2 2v37h-1l-5-27v-15z" fill="#5D1616"/>
<path transform="translate(285,791)" d="m0 0h2l-3 9-7 16-6 8-9 8-13 10-14 13v-3l16-16 16-12 6-8 6-12z" fill="#D92627"/>
<path transform="translate(778,577)" d="m0 0 1 3-12 42-3 15-2-1v-11l6-23 7-19z" fill="#D92627"/>
<path transform="translate(801,382)" d="m0 0h1l2 42 4 20 1 6-3-3-4-11-2-11v-35z" fill="#D92627"/>
<path transform="translate(884,784)" d="m0 0 4 2 10 23 1 5-4-4-8-15-7 2-3 3h-3l1-9 9-3z" fill="#611616"/>
<path transform="translate(851,506)" d="m0 0h1l-1 10-8 62-1 10h-1v-21l4-32 5-26z" fill="#D92627"/>
<path transform="translate(978,861)" d="m0 0 4 4 7 11 1-2 4 1 1 5v8l-4-4-4 2-3-2-4 2 3-4h2v-2l-2-1-3-9z" fill="#631617"/>
<path transform="translate(745,564)" d="m0 0 1 3-12 45v6l-2 1-1-3v-10l7-24z" fill="#D92627"/>
<path transform="translate(283,471)" d="m0 0 3 3 7 21 3 19-1 10-3 1-1-17-5-26z" fill="#D92627"/>
<path transform="translate(936,675)" d="m0 0 3 1-12 10-16 12-13 10-9 7-2-1 11-10 14-11 18-14z" fill="#D92627"/>
<path transform="translate(780,377)" d="m0 0 2 1v10l-4 10-3 28-2 1v-24l3-10 3-7v-8z" fill="#D92627"/>
<path transform="translate(876,403)" d="m0 0 6 2 12 5 20 7 3 2-10-1-21-6-7-4-3-3z" fill="#D92627"/>
<path transform="translate(914,622)" d="m0 0 2 1-13 11-9 7-13 9-6 3-3-1 28-20z" fill="#D92627"/>
<path transform="translate(248,495)" d="m0 0h2l-2 4-9 9-22 11-2-1 12-8 8-7 12-7z" fill="#D92627"/>
<path transform="translate(797,477)" d="m0 0 6 2 12 7 12 8 5 6 1 3h-3l-7-7-12-8-14-10z" fill="#D92627"/>
<path transform="translate(852,606)" d="m0 0 9 2 5 1h21l14-3 3 1-11 4-8 2h-16l-12-3-5-3z" fill="#D92627"/>
<path transform="translate(654,527)" d="m0 0 2 1-1 6-6 11-10 13-8 8-2-1 6-7 11-16 7-12z" fill="#D92627"/>
<path transform="translate(793,607)" d="m0 0h1l-1 24v24l1 9h-2l-2-6-1-14 2-25z" fill="#D92627"/>
<path transform="translate(1017,785)" d="m0 0h3l1 15-1 6h-1l-1-7-1-1-2 16h-1l-1-9v-17h3z" fill="#651717"/>
<path transform="translate(989,763)" d="m0 0 2 2v29l-2-4-3-11v-14z" fill="#571515"/>
<path transform="translate(943,796)" d="m0 0m-2 1 2 1-1 3-11 6 2 7 4 1-2 2 2 14-3-4-7-16 1-5z" fill="#6F1818"/>
<path transform="translate(929,628)" d="m0 0 2 1-10 9-11 9-10 9-8 6-4-1 10-8 13-11 17-13z" fill="#D92627"/>
<path transform="translate(324,453)" d="m0 0h1l2 20v20l-2 5-2 1z" fill="#D92627"/>
<path transform="translate(349,657)" d="m0 0 4 5 8 19 4 14v6h-2l-9-29-5-12z" fill="#D92627"/>
<path transform="translate(238,747)" d="m0 0 6 2 19 10 16 6 10 6 3 4-5-2-10-6-18-7-20-11z" fill="#D92627"/>
<path transform="translate(294,438)" d="m0 0 2 1-7 7-12 7-3 1h-8v-3l17-6z" fill="#D92627"/>
<path transform="translate(852,590)" d="m0 0 25 3 22 3v1h-17l-22-2-8-4z" fill="#D92627"/>
<path transform="translate(274,581)" d="m0 0h5v2l-16 8-11 6-8 7v-3l10-9 14-8z" fill="#D92627"/>
<path transform="translate(903,613)" d="m0 0 2 1-12 9-16 8-12 3h-7l2-2 22-6 13-7z" fill="#D92627"/>
<path transform="translate(715,562)" d="m0 0 1 4-9 33-2 2v-10l8-24z" fill="#D92627"/>
<path transform="translate(965,831)" d="m0 0 2 1-1 3-8 4 5 9v2l2 1 4 11-1 2-13-23-1-4 7-3z" fill="#8C1C1C"/>
<path transform="translate(264,680)" d="m0 0 2 1-10 7-14 4-6 1h-11l3-2 16-3 15-5z" fill="#D92627"/>
<path transform="translate(899,681)" d="m0 0h2l-1 4-18 12-10 6-2-1 13-10z" fill="#D92627"/>
<path transform="translate(281,638)" d="m0 0h6l2 3-10 1-25 6-6 1 2-2 21-7z" fill="#D92627"/>
<path transform="translate(996,868)" d="m0 0 4 1 2 8v12l-3-4-4-9v-7z" fill="#6A1718"/>
<path transform="translate(308,429)" d="m0 0 11 1 18 2-1 3h-15l-12-4z" fill="#D92627"/>
<path transform="translate(437,601)" d="m0 0 3 3 3 15 1 12v18h-1l-2-24-4-19z" fill="#D92627"/>
<path transform="translate(973,733)" d="m0 0 4 5 8 13v4l-4-2-6-10-2-2h2l-2-5z" fill="#751919"/>
<path transform="translate(852,567)" d="m0 0 5 1 12 3 26 3v1h-18l-13-2-11-4z" fill="#D92627"/>
<path transform="translate(251,862)" d="m0 0h2l-1 5-10 22-3 3 1-5 10-24z" fill="#D92627"/>
<path transform="translate(979,724)" d="m0 0 3 3 4 7v4h-4l-3 1-2-5v-5l2 1z" fill="#5C1616"/>
<path transform="translate(875,430)" d="m0 0 3 1-6 10-7 17h-1l1-8 6-15z" fill="#D92627"/>
<path transform="translate(912,972)" d="m0 0 3 1v11l-2 13h-1l-1-15-1-5z" fill="#7B1A1A"/>
<path transform="translate(867,506)" d="m0 0 15 4 23 4v1h-10l-22-4-6-3z" fill="#D92627"/>
<path transform="translate(755,280)" d="m0 0h2l-2 5-10 6-5 2-3-1 8-5z" fill="#D92627"/>
<path transform="translate(870,968)" d="m0 0h8l9 3-1 4v-2l-6-1h-9l-4 1 1-4z" fill="#7E1A1A"/>
<path transform="translate(926,756)" d="m0 0 5 5 3 5-1 2-4-3 1 4-6-5-1-3z" fill="#7A191A"/>
<path transform="translate(896,469)" d="m0 0 4 1-17 7-5 2-3-1 3-3 14-5z" fill="#D92627"/>
<path transform="translate(951,839)" d="m0 0 3 1 4 11 1 6-3-3-6-12z" fill="#711819"/>
<path transform="translate(947,843)" d="m0 0h3l4 10 1 7-4-4-4-8z" fill="#6D1818"/>
<path transform="translate(976,769)" d="m0 0 4 1-3 14-2-3-1-10z" fill="#731819"/>
<path transform="translate(860,542)" d="m0 0 16 4 19 5-4 1-24-6-7-3z" fill="#D92627"/>
<path transform="translate(1033,851)" d="m0 0h7l-3 3-10 5h-3l3-5z" fill="#6E1818"/>
<path transform="translate(446,603)" d="m0 0 3 3 7 14-1 2-7-10-3-8z" fill="#D92627"/>
<path transform="translate(913,884)" d="m0 0 5 5 4 7-1 2-10-10v-3z" fill="#741919"/>
<path transform="translate(959,846)" d="m0 0h3l1 4 2 1 4 11-1 2-9-16z" fill="#7E1A1A"/>
<path transform="translate(1025,749)" d="m0 0 3 1-3 3-12 3 2-4z" fill="#741919"/>
<path transform="translate(923,810)" d="m0 0 4 1 3 10-1 3-6-10z" fill="#721819"/>
<path transform="translate(990,874)" d="m0 0 4 1 1 5v8l-3-4-2-6z" fill="#6B1818"/>
<path transform="translate(876,483)" d="m0 0 6 1 12 6-3 1-13-5z" fill="#D92627"/>
<path transform="translate(1037,856)" d="m0 0h5l-1 2-8 3-6 1 1-3z" fill="#611616"/>
<path transform="translate(918,814)" d="m0 0h4l3 8-1 4-6-10z" fill="#731919"/>
<path transform="translate(972,742)" d="m0 0h3l-2 4-8 4-1-2 3-3z" fill="#5F1616"/>
<path transform="translate(681,565)" d="m0 0 1 3-7 19h-1l1-8z" fill="#D92627"/>
<path transform="translate(839,349)" d="m0 0 16 5v1h-8l-8-3z" fill="#D92627"/>
<path transform="translate(1021,740)" d="m0 0h7v2l-8 3-4 3-2-1 5-6z" fill="#571515"/>
<path transform="translate(943,796)" d="m0 0m-2 1 2 1-1 3-12 6 1-3z" fill="#8F1C1D"/>
<path transform="translate(1e3 763)" d="m0 0v3l-9 9h-1v-9h1l1 5 5-5z" fill="#831B1B"/>
<path transform="translate(977,729)" d="m0 0 5 4 1 3-2 3h-2l-2-5z" fill="#921C1D"/>
<path transform="translate(275,369)" d="m0 0h18l-1 2h-13z" fill="#D92627"/>
<path transform="translate(890,775)" d="m0 0 3 1 2 5v5l-4-4z" fill="#7B1A1A"/>
<path transform="translate(808,357)" d="m0 0h2v2l-11 6-3-1z" fill="#D92627"/>
<path transform="translate(870,968)" d="m0 0h6l1 2-10 3 1-4z" fill="#5E1616"/>
<path transform="translate(250,452)" d="m0 0h12l1 2-8 1-5-1z" fill="#D92627"/>
<path transform="translate(924,760)" d="m0 0 4 1 2 8-6-5-1-3z" fill="#971D1E"/>
<path transform="translate(903,890)" d="m0 0 4 1 4 6h-3l-5-5z" fill="#6E1818"/>
<path transform="translate(907,887)" d="m0 0 4 2 2 3-1 3-5-4-1-3z" fill="#681717"/>
<path transform="translate(218,366)" d="m0 0 4 1v2h-10l-3-2z" fill="#D92627"/>
<path transform="translate(216,387)" d="m0 0 8 1v2h-8l-2-2z" fill="#D92627"/>
<path transform="translate(325,699)" d="m0 0 2 4 3 8-1 3-4-10z" fill="#D92627"/>
<path transform="translate(888,780)" d="m0 0h2l1 7-3-3z" fill="#7F1A1B"/>
<path transform="translate(884,716)" d="m0 0 2 1-4 2z" fill="#D92627"/>
<path transform="translate(324,693)" d="m0 0h1v6h-1z" fill="#D92627"/>
<path transform="translate(915,935)" d="m0 0h1v5h-1z" fill="#D92627"/>
<path transform="translate(895,552)" d="m0 0 4 1z" fill="#D92627"/>
<path transform="translate(863,458)" d="m0 0 1 4z" fill="#D92627"/>
<path transform="translate(931,916)" d="m0 0 3 1z" fill="#D92627"/>
<path transform="translate(225,728)" d="m0 0 3 1z" fill="#D92627"/>
<path transform="translate(220,691)" d="m0 0 3 1z" fill="#D92627"/>
<path transform="translate(779,574)" d="m0 0" fill="#D92627"/>
<path transform="translate(918,419)" d="m0 0 3 1z" fill="#D92627"/>
<path transform="translate(272,368)" d="m0 0 3 1z" fill="#D92627"/>
<path transform="translate(926,950)" d="m0 0 2 1z" fill="#D92627"/>
<path transform="translate(236,896)" d="m0 0" fill="#D92627"/>
<path transform="translate(913,895)" d="m0 0" fill="#D92627"/>
<path transform="translate(237,894)" d="m0 0" fill="#D92627"/>
<path transform="translate(238,892)" d="m0 0" fill="#D92627"/>
<path transform="translate(1009,871)" d="m0 0" fill="#D92627"/>
<path transform="translate(970,866)" d="m0 0" fill="#D92627"/>
<path transform="translate(969,864)" d="m0 0" fill="#D92627"/>
<path transform="translate(955,860)" d="m0 0" fill="#D92627"/>
<path transform="translate(965,848)" d="m0 0" fill="#D92627"/>
<path transform="translate(900,816)" d="m0 0" fill="#D92627"/>
<path transform="translate(899,814)" d="m0 0" fill="#D92627"/>
<path transform="translate(941,793)" d="m0 0" fill="#D92627"/>
<path transform="translate(891,787)" d="m0 0" fill="#D92627"/>
<path transform="translate(895,786)" d="m0 0" fill="#D92627"/>
<path transform="translate(891,762)" d="m0 0" fill="#D92627"/>
<path transform="translate(236,746)" d="m0 0 2 1z" fill="#D92627"/>
<path transform="translate(977,710)" d="m0 0" fill="#D92627"/>
<path transform="translate(868,703)" d="m0 0 2 1z" fill="#D92627"/>
<path transform="translate(855,703)" d="m0 0 2 1z" fill="#D92627"/>
<path transform="translate(858,701)" d="m0 0 2 1z" fill="#D92627"/>
<path transform="translate(348,655)" d="m0 0" fill="#D92627"/>
<path transform="translate(347,653)" d="m0 0" fill="#D92627"/>
<path transform="translate(346,651)" d="m0 0" fill="#D92627"/>
<path transform="translate(246,649)" d="m0 0 2 1z" fill="#D92627"/>
<path transform="translate(906,611)" d="m0 0 2 1z" fill="#D92627"/>
<path transform="translate(382,595)" d="m0 0" fill="#D92627"/>
<path transform="translate(780,572)" d="m0 0" fill="#D92627"/>
<path transform="translate(682,563)" d="m0 0" fill="#D92627"/>
<path transform="translate(746,561)" d="m0 0" fill="#D92627"/>
<path transform="translate(716,560)" d="m0 0" fill="#D92627"/>
<path transform="translate(901,553)" d="m0 0 2 1z" fill="#D92627"/>
<path transform="translate(894,491)" d="m0 0 2 1z" fill="#D92627"/>
<path transform="translate(795,476)" d="m0 0 2 1z" fill="#D92627"/>
<path transform="translate(658,426)" d="m0 0" fill="#D92627"/>
<path transform="translate(802,378)" d="m0 0" fill="#D92627"/>
<path transform="translate(792,366)" d="m0 0 2 1z" fill="#D92627"/>
<path transform="translate(794,365)" d="m0 0 2 1z" fill="#D92627"/>
<path transform="translate(891,339)" d="m0 0" fill="#D92627"/>
<path transform="translate(842,264)" d="m0 0 2 1z" fill="#D92627"/>
<path transform="translate(1016,1026)" d="m0 0" fill="#D92627"/>
<path transform="translate(925,951)" d="m0 0" fill="#D92627"/>
<path transform="translate(928,949)" d="m0 0" fill="#D92627"/>
<path transform="translate(914,933)" d="m0 0" fill="#D92627"/>
<path transform="translate(235,899)" d="m0 0" fill="#D92627"/>
<path transform="translate(922,898)" d="m0 0" fill="#D92627"/>
<path transform="translate(891,883)" d="m0 0" fill="#D92627"/>
<path transform="translate(1010,870)" d="m0 0" fill="#D92627"/>
<path transform="translate(1011,869)" d="m0 0" fill="#D92627"/>
<path transform="translate(971,869)" d="m0 0" fill="#D92627"/>
<path transform="translate(949,862)" d="m0 0" fill="#D92627"/>
<path transform="translate(977,860)" d="m0 0" fill="#D92627"/>
<path transform="translate(948,860)" d="m0 0" fill="#D92627"/>
<path transform="translate(230,859)" d="m0 0" fill="#D92627"/>
<path transform="translate(231,857)" d="m0 0" fill="#D92627"/>
<path transform="translate(232,856)" d="m0 0" fill="#D92627"/>
<path transform="translate(233,855)" d="m0 0" fill="#D92627"/>
<path transform="translate(937,831)" d="m0 0" fill="#D92627"/>
<path transform="translate(901,818)" d="m0 0" fill="#D92627"/>
<path transform="translate(1008,814)" d="m0 0" fill="#D92627"/>
<path transform="translate(906,802)" d="m0 0" fill="#D92627"/>
<path transform="translate(942,795)" d="m0 0" fill="#D92627"/>
<path transform="translate(940,792)" d="m0 0" fill="#D92627"/>
<path transform="translate(930,769)" d="m0 0" fill="#D92627"/>
<path transform="translate(920,741)" d="m0 0" fill="#D92627"/>
<path transform="translate(919,740)" d="m0 0" fill="#D92627"/>
<path transform="translate(223,727)" d="m0 0" fill="#D92627"/>
<path transform="translate(874,725)" d="m0 0" fill="#D92627"/>
<path transform="translate(875,724)" d="m0 0" fill="#D92627"/>
<path transform="translate(879,721)" d="m0 0" fill="#D92627"/>
<path transform="translate(880,720)" d="m0 0" fill="#D92627"/>
<path transform="translate(881,719)" d="m0 0" fill="#D92627"/>
<path transform="translate(886,715)" d="m0 0" fill="#D92627"/>
<path transform="translate(976,708)" d="m0 0" fill="#D92627"/>
<path transform="translate(850,706)" d="m0 0" fill="#D92627"/>
<path transform="translate(866,705)" d="m0 0" fill="#D92627"/>
<path transform="translate(852,705)" d="m0 0" fill="#D92627"/>
<path transform="translate(867,704)" d="m0 0" fill="#D92627"/>
<path transform="translate(854,704)" d="m0 0" fill="#D92627"/>
<path transform="translate(857,702)" d="m0 0" fill="#D92627"/>
<path transform="translate(345,650)" d="m0 0" fill="#D92627"/>
<path transform="translate(244,650)" d="m0 0" fill="#D92627"/>
<path transform="translate(344,648)" d="m0 0" fill="#D92627"/>
<path transform="translate(343,646)" d="m0 0" fill="#D92627"/>
<path transform="translate(342,644)" d="m0 0" fill="#D92627"/>
<path transform="translate(931,627)" d="m0 0" fill="#D92627"/>
<path transform="translate(932,626)" d="m0 0" fill="#D92627"/>
<path transform="translate(934,625)" d="m0 0" fill="#D92627"/>
<path transform="translate(458,625)" d="m0 0" fill="#D92627"/>
<path transform="translate(935,624)" d="m0 0" fill="#D92627"/>
<path transform="translate(457,624)" d="m0 0" fill="#D92627"/>
<path transform="translate(456,622)" d="m0 0" fill="#D92627"/>
<path transform="translate(916,621)" d="m0 0" fill="#D92627"/>
<path transform="translate(917,620)" d="m0 0" fill="#D92627"/>
<path transform="translate(905,612)" d="m0 0" fill="#D92627"/>
<path transform="translate(908,610)" d="m0 0" fill="#D92627"/>
<path transform="translate(909,609)" d="m0 0" fill="#D92627"/>
<path transform="translate(905,605)" d="m0 0" fill="#D92627"/>
<path transform="translate(241,605)" d="m0 0" fill="#D92627"/>
<path transform="translate(242,604)" d="m0 0" fill="#D92627"/>
<path transform="translate(381,594)" d="m0 0" fill="#D92627"/>
<path transform="translate(380,592)" d="m0 0" fill="#D92627"/>
<path transform="translate(379,591)" d="m0 0" fill="#D92627"/>
<path transform="translate(377,588)" d="m0 0" fill="#D92627"/>
<path transform="translate(781,570)" d="m0 0" fill="#D92627"/>
<path transform="translate(627,567)" d="m0 0" fill="#D92627"/>
<path transform="translate(628,566)" d="m0 0" fill="#D92627"/>
<path transform="translate(747,558)" d="m0 0" fill="#D92627"/>
<path transform="translate(717,558)" d="m0 0" fill="#D92627"/>
<path transform="translate(214,519)" d="m0 0" fill="#D92627"/>
<path transform="translate(897,492)" d="m0 0" fill="#D92627"/>
<path transform="translate(794,475)" d="m0 0" fill="#D92627"/>
<path transform="translate(282,469)" d="m0 0" fill="#D92627"/>
<path transform="translate(901,468)" d="m0 0" fill="#D92627"/>
<path transform="translate(280,466)" d="m0 0" fill="#D92627"/>
<path transform="translate(296,437)" d="m0 0" fill="#D92627"/>
<path transform="translate(734,387)" d="m0 0" fill="#D92627"/>
<path transform="translate(790,367)" d="m0 0" fill="#D92627"/>
<path transform="translate(892,338)" d="m0 0" fill="#D92627"/>
</svg>
